<svg id="Layer_1" data-name="Layer 1" xmlns="http://www.w3.org/2000/svg" width="150" height="150" viewBox="0 0 150 150">
  <defs>
    <style>
      .cls-1 {
        fill: #feb835;
        fill-rule: evenodd;
      }
    </style>
  </defs>
  <path id="Path_16" data-name="Path 16" class="cls-1" d="M76.06,22.89a190.72,190.72,0,0,1,24.84.69,32,32,0,0,1,11.73,2.07,24.27,24.27,0,0,1,11.73,11.73,32.12,32.12,0,0,1,2.07,11.72c0,6.21.69,8.28.69,24.84a190.72,190.72,0,0,1-.69,24.84,32.21,32.21,0,0,1-2.07,11.73,24.27,24.27,0,0,1-11.73,11.73,32.21,32.21,0,0,1-11.73,2.07c-6.21,0-8.28.69-24.84.69a190.76,190.76,0,0,1-24.84-.69,32.12,32.12,0,0,1-11.72-2.07,24.23,24.23,0,0,1-11.73-11.73A32,32,0,0,1,25.7,98.78c0-6.21-.69-8.28-.69-24.84A190.76,190.76,0,0,1,25.7,49.1a31.91,31.91,0,0,1,2.07-11.72,24.71,24.71,0,0,1,4.82-6.9,11.71,11.71,0,0,1,6.9-4.83,32,32,0,0,1,11.73-2.07,190.72,190.72,0,0,1,24.84-.69m0-11a205.28,205.28,0,0,0-25.53.69A42.58,42.58,0,0,0,35.35,15.3a27.09,27.09,0,0,0-11,6.9,27.09,27.09,0,0,0-6.9,11,31.57,31.57,0,0,0-2.76,15.18A205.23,205.23,0,0,0,14,74a205.23,205.23,0,0,0,.69,25.53,42.54,42.54,0,0,0,2.76,15.18,27,27,0,0,0,6.9,11,27.09,27.09,0,0,0,11,6.9,42.53,42.53,0,0,0,15.18,2.75,201.39,201.39,0,0,0,25.53.69,201.49,201.49,0,0,0,25.53-.69,42.47,42.47,0,0,0,15.17-2.75,28.93,28.93,0,0,0,17.94-17.94,42.58,42.58,0,0,0,2.76-15.18c0-6.9.69-9,.69-25.53a201.39,201.39,0,0,0-.69-25.53,42.54,42.54,0,0,0-2.76-15.18,26.88,26.88,0,0,0-6.9-11,27.12,27.12,0,0,0-11-6.9,42.8,42.8,0,0,0-15.18-2.76,205.23,205.23,0,0,0-25.53-.69m0,30.36A31.23,31.23,0,0,0,44.32,72.92v1A31.74,31.74,0,1,0,76.06,42.21m0,52.44a20.34,20.34,0,0,1-20.7-20V74a20.32,20.32,0,0,1,20-20.7h.75a20.32,20.32,0,0,1,20.7,20q0,.38,0,.75a20.34,20.34,0,0,1-20,20.7h-.75m33.11-61.41a7.59,7.59,0,1,0,7.59,7.59h0a7.65,7.65,0,0,0-7.59-7.59"/>
</svg>
