<svg id="Layer_1" data-name="Layer 1" xmlns="http://www.w3.org/2000/svg" width="500" height="200" viewBox="0 0 500 200">
  <defs>
    <style>
      .cls-1 {
        fill: #feb835;
      }
    </style>
  </defs>
  <g>
    <path class="cls-1" d="M68.32,48.67C75,51.51,79.67,55.58,82.56,61.18A44,44,0,0,1,87,81.46c0,7.85-1.5,14.63-4.4,20.15S75.07,111.17,68.35,114s-15.11,4.25-25,4.25H10.23V44.43H43.28C53.21,44.43,61.6,45.84,68.32,48.67Zm-7,51.21c4.41-4.2,6.52-10.36,6.52-18.43s-2.16-14.28-6.55-18.6-11.4-6.36-20.86-6.26l-12.68.13c-2.42,15.76-2.05,33.39,0,49.14l12.68.13c9.5.09,16.57-1.9,20.93-6.11Z"/>
    <path class="cls-1" d="M169.06,44.41a259.23,259.23,0,0,0-36.55,49c.85,10.87,1.77,16.25,4.58,24.88h-19c-3-8.86-4.68-14.12-5.42-25A269.47,269.47,0,0,1,86,44.42h21.41c4,11.56,8.67,23,14.92,33.51C130,65.93,138,54.6,148,44.41Z"/>
    <path class="cls-1" d="M247.08,87.07c3.6,3.65,5.21,7.81,4.76,12.3a16,16,0,0,1-5.24,10.32,29.55,29.55,0,0,1-12.09,6.39,59.88,59.88,0,0,1-17,2.17h-40.8a305,305,0,0,1,0-73.84h39.06a61.38,61.38,0,0,1,16.95,2.08c4.93,1.41,8.9,3.42,11.79,6.15a15.18,15.18,0,0,1,5,9.69,13.63,13.63,0,0,1-4,11.35A25.81,25.81,0,0,1,233,80.31,24.23,24.23,0,0,1,247.08,87.07ZM195.25,74.34h18.84c4.9,0,8.67-.86,11.27-2.56a7.61,7.61,0,0,0,3.66-7.2,8.23,8.23,0,0,0-4.32-6.95c-2.68-1.61-6.37-2.39-11.1-2.39H195.42C195.31,62.4,195.27,66.33,195.25,74.34Zm31.67,30.5a8.66,8.66,0,0,0,4.59-7.29,8.47,8.47,0,0,0-4.08-7.89q-4.34-2.91-11.86-2.91H195.24c0,8.62.06,12.9.18,20.58h20C220.27,107.33,224.08,106.52,226.92,104.84Z"/>
    <path class="cls-1" d="M282.45,55.41a90.1,90.1,0,0,1,2.54,19l32.36.1c.14,4.94.15,7.45,0,12.4Q301.21,87,285,87a92.47,92.47,0,0,1-2.58,20.15l36.05-.28c-1.15,4.72-1.78,7-3.18,11.36h-54.9a135,135,0,0,0,0-73.92h54.9c1.4,4.34,2,6.64,3.18,11.36Z"/>
    <path class="cls-1" d="M390.13,44.43v12l-23.5-.25c2.64,21.15,1.34,41.12-1.71,62.12H346c4.66-21.24,6.43-40.7,2.54-62.3l-24.63-.22c-1.12-4.68-1.74-7-3.09-11.31Z"/>
  </g>
  <g>
    <path class="cls-1" d="M22,136.66h2.6l11.22,24.8h-3L30,155H16.56l-2.92,6.51H10.79Zm6.86,15.76-5.59-12.53-5.63,12.53Z"/>
    <path class="cls-1" d="M63.56,136.83h2.78v14.71l14.15-14.71h3.58L73.52,147.6l11,13.86H81.05l-9.46-11.93-5.25,5.31v6.62H63.56Z"/>
    <path class="cls-1" d="M108.57,136.83h3.09l8.76,21.22,8.8-21.22h3l-10.59,24.8h-2.46Z"/>
    <path class="cls-1" d="M165.53,136.66h2.6l11.23,24.8h-3L173.48,155h-13.4l-2.92,6.51h-2.85Zm6.86,15.76-5.59-12.53-5.63,12.53Z"/>
    <path class="cls-1" d="M207.09,136.83h10.59a9.68,9.68,0,0,1,7,2.47,6.84,6.84,0,0,1,1.9,4.85v.07c0,4.08-2.82,6.47-6.69,7.18l7.57,10.06H224l-7.14-9.57h-7v9.57h-2.78Zm10.34,12.56c3.69,0,6.33-1.9,6.33-5.06v-.07c0-3-2.32-4.86-6.29-4.86h-7.6v10Z"/>
    <path class="cls-1" d="M255.64,136.83h2.78v24.63h-2.78Z"/>
    <path class="cls-1" d="M288.12,151.15V136.83h2.78V151c0,5.31,2.85,8.3,7.53,8.3s7.42-2.75,7.42-8.13V136.83h2.78v14.11c0,7.18-4.12,10.9-10.27,10.9S288.12,158.12,288.12,151.15Z"/>
    <path class="cls-1" d="M338.08,136.83h2.82l9,13.44,9-13.44h2.81v24.63h-2.78v-20l-9,13.19h-.14l-9-13.15v19.91h-2.71Z"/>
  </g>
  <path class="cls-1" d="M419.14,66l-11.26-.71s21.43-14.87,22.47-19.77c-.59,11.57.95,22.9-21.66,46.43-5.06,5.31-1.26,14.15,7.74,17.35s12,3.7,12,3.7,3.91-2.56,4.88-2c.77-3.3,22.26-48.84,22.91-49.91a82.89,82.89,0,0,0-10.57-.41s12.42-7.39,24.45-22.57c-1.29,10.33-1,30.47,1.19,33.48A42.2,42.2,0,0,0,462.71,64L444.5,115.69s1.38,3,1.32,4.17c2.18,2.06,13.87,7.55,13.87,7.55s13.64,4.72,15.52-9c1.11-10.41,2-36.18,17.76-47.3-.73,11,.52,29.77,1.24,30.46-6.64-6.4-8.68-7.83-8.68-7.83s-2.57,20.67-1.27,23.88c.14,1.58.08,26.92-20.28,22.78-16.41-4.38-22.58-11-22.58-11a13.81,13.81,0,0,1-3.76.76C436,134,428,150.3,428,150.3l-8.08-3.3,7.28-20.79a17.67,17.67,0,0,1-2.33-3.65c-1.75-.16-28.91-5-31-20.8C394.18,89.33,408,80.05,408,80.05S418.43,68.2,419.14,66Z"/>
</svg>
